<svg width="28" height="30" viewBox="0 0 28 30" fill="none" xmlns="http://www.w3.org/2000/svg">
<path fill-rule="evenodd" clip-rule="evenodd" d="M14 6.375C11.3076 6.375 9.12501 8.55761 9.12501 11.25C9.12501 13.9424 11.3076 16.125 14 16.125C16.6924 16.125 18.875 13.9424 18.875 11.25C18.875 8.55761 16.6924 6.375 14 6.375ZM11.375 11.25C11.375 9.80025 12.5503 8.625 14 8.625C15.4498 8.625 16.625 9.80025 16.625 11.25C16.625 12.6997 15.4498 13.875 14 13.875C12.5503 13.875 11.375 12.6997 11.375 11.25Z" fill="#6FBA1F"/>
<path fill-rule="evenodd" clip-rule="evenodd" d="M14 0.375C7.99391 0.375 3.12501 5.2439 3.12501 11.25C3.12501 13.4522 3.77958 15.5015 4.90477 17.214L1.02572 23.9327C0.805126 24.3148 0.828232 24.7905 1.08482 25.1495C1.3414 25.5084 1.7841 25.6842 2.217 25.5991L6.13781 24.8283L7.43071 28.6092C7.57346 29.0267 7.94706 29.3221 8.38618 29.3649C8.8253 29.4076 9.24887 29.1898 9.46947 28.8077L13.3391 22.1052C13.5577 22.1184 13.7781 22.125 14 22.125C14.2219 22.125 14.4423 22.1184 14.6609 22.1052L18.5306 28.8077C18.7514 29.1902 19.1755 29.4081 19.6151 29.3648C20.0546 29.3215 20.4281 29.0251 20.5701 28.6069L21.8564 24.8183L25.7806 25.5986C26.2138 25.6847 26.6573 25.5094 26.9145 25.1505C27.1717 24.7915 27.1951 24.3152 26.9743 23.9327L23.0952 17.214C24.2204 15.5015 24.875 13.4522 24.875 11.25C24.875 5.2439 20.0061 0.375 14 0.375ZM5.37501 11.25C5.37501 6.48654 9.23655 2.625 14 2.625C18.7635 2.625 22.625 6.48654 22.625 11.25C22.625 16.0135 18.7635 19.875 14 19.875C9.23655 19.875 5.37501 16.0135 5.37501 11.25ZM10.9756 21.6989C9.24617 21.1992 7.69395 20.2818 6.43536 19.0629L4.21205 22.9138L6.6675 22.4311C7.21958 22.3226 7.76694 22.6386 7.94899 23.171L8.75868 25.5388L10.9756 21.6989ZM19.2378 25.5326L17.0244 21.6989C18.7538 21.1992 20.3061 20.2818 21.5647 19.0629L23.7844 22.9076L21.3277 22.4191C20.7741 22.309 20.2245 22.6263 20.0431 23.1608L19.2378 25.5326Z" fill="#6FBA1F"/>
</svg>
