<?xml version="1.0" encoding="UTF-8"?>
<svg xmlns="http://www.w3.org/2000/svg" xmlns:xlink="http://www.w3.org/1999/xlink" viewBox="0 0 18 18" width="18px" height="18px">
<g id="surface34608657">
<path style=" stroke:none;fill-rule:nonzero;fill:rgb(100%,100%,100%);fill-opacity:1;" d="M 3.742188 2.992188 C 3.4375 2.992188 3.164062 3.179688 3.046875 3.460938 C 2.933594 3.742188 3 4.066406 3.21875 4.28125 L 7.941406 9 L 3.21875 13.71875 C 3.023438 13.90625 2.945312 14.1875 3.011719 14.449219 C 3.082031 14.710938 3.289062 14.917969 3.550781 14.988281 C 3.8125 15.054688 4.09375 14.976562 4.28125 14.78125 L 9 10.058594 L 13.71875 14.78125 C 13.90625 14.976562 14.1875 15.054688 14.449219 14.988281 C 14.710938 14.917969 14.917969 14.710938 14.988281 14.449219 C 15.054688 14.1875 14.976562 13.90625 14.78125 13.71875 L 10.0625 9 L 14.78125 4.28125 C 15.003906 4.066406 15.070312 3.734375 14.949219 3.449219 C 14.828125 3.164062 14.542969 2.984375 14.234375 2.992188 C 14.039062 3 13.855469 3.078125 13.71875 3.21875 L 9 7.9375 L 4.28125 3.21875 C 4.140625 3.074219 3.945312 2.992188 3.742188 2.992188 Z M 3.742188 2.992188 "/>
</g>
</svg>
