<svg width="22" height="32" viewBox="0 0 22 32" fill="none" xmlns="http://www.w3.org/2000/svg">
<path fill-rule="evenodd" clip-rule="evenodd" d="M8.75999 1.26199C9.03258 0.948357 9.45585 0.810517 9.86085 0.903496C15.2741 2.14627 18.0103 8.0782 17.3668 13.3854C17.1167 15.4485 16.4987 17.0658 15.5888 18.3527C15.5832 18.3605 15.5776 18.3684 15.572 18.3762C15.7787 18.2746 15.9694 18.165 16.1479 18.0492C17.0357 17.4729 17.6874 16.7124 18.5359 15.7221C18.6385 15.6024 18.7439 15.4794 18.853 15.3529C19.0981 15.0686 19.4688 14.9254 19.8414 14.9709C20.2139 15.0164 20.5393 15.2447 20.7087 15.5796C21.455 17.0544 21.875 18.7217 21.875 20.4839C21.875 26.49 17.0061 31.3589 11 31.3589C4.9939 31.3589 0.125 26.49 0.125 20.4839C0.125 16.6783 2.08056 13.3302 5.03647 11.3885L5.1378 11.2864C5.18986 11.2339 5.24697 11.1867 5.30828 11.1455C6.60708 10.2715 7.53968 9.55673 8.16756 8.71608C8.76069 7.92196 9.125 6.95324 9.125 5.4839C9.125 4.39598 8.92412 3.35762 8.55843 2.40207C8.40991 2.01398 8.48741 1.57563 8.75999 1.26199ZM11.2568 3.87615C11.3347 4.40112 11.375 4.93802 11.375 5.4839C11.375 7.38652 10.8834 8.83986 9.97023 10.0625C9.1126 11.2108 7.92541 12.0926 6.65699 12.9498L6.54854 13.0591C6.49043 13.1176 6.42606 13.1696 6.35659 13.2141C3.95971 14.7486 2.375 17.4316 2.375 20.4839C2.375 25.2474 6.23654 29.1089 11 29.1089C15.7635 29.1089 19.625 25.2474 19.625 20.4839C19.625 19.7042 19.5218 18.9495 19.3285 18.2324C18.7582 18.85 18.1287 19.4459 17.3728 19.9365C15.9879 20.8353 14.2549 21.3485 11.75 21.3485C11.2366 21.3485 10.7884 21.0009 10.6605 20.5037C10.5326 20.0065 10.7575 19.4858 11.2072 19.2381C12.2254 18.6771 13.0885 17.9914 13.7517 17.0536C14.4135 16.1177 14.9206 14.8681 15.1332 13.1146C15.5935 9.31845 14.0224 5.57154 11.2568 3.87615Z" fill="#0BBDD6"/>
</svg>
