<svg width="22" height="18" viewBox="0 0 22 18" fill="none" xmlns="http://www.w3.org/2000/svg">
<path fill-rule="evenodd" clip-rule="evenodd" d="M21.75 9.34358C21.75 8.73901 21.2842 8.24891 20.7097 8.24891H1.29032C0.715768 8.24891 0.25 8.73901 0.25 9.34358C0.25 9.94814 0.715768 10.4382 1.29032 10.4382H20.7097C21.2842 10.4382 21.75 9.94814 21.75 9.34358Z" fill="white"/>
<path fill-rule="evenodd" clip-rule="evenodd" d="M21.75 2.04583C21.75 1.44127 21.2842 0.951172 20.7097 0.951172H1.29032C0.715768 0.951172 0.25 1.44127 0.25 2.04583C0.25 2.6504 0.715768 3.14049 1.29032 3.14049H20.7097C21.2842 3.14049 21.75 2.6504 21.75 2.04583Z" fill="white"/>
<path fill-rule="evenodd" clip-rule="evenodd" d="M21.75 16.6413C21.75 16.0368 21.2842 15.5467 20.7097 15.5467H1.29032C0.715768 15.5467 0.25 16.0368 0.25 16.6413C0.25 17.2459 0.715768 17.736 1.29032 17.736H20.7097C21.2842 17.736 21.75 17.2459 21.75 16.6413Z" fill="white"/>
</svg>
