<svg width="18" height="18" viewBox="0 0 18 18" fill="none" xmlns="http://www.w3.org/2000/svg">
<path fill-rule="evenodd" clip-rule="evenodd" d="M2.34029 6.85641C4.1276 10.7483 7.30809 13.8425 11.2619 15.5191L11.2743 15.5244L12.0382 15.8648C13.0108 16.2982 14.154 15.9904 14.7776 15.1273L16.052 13.3636C16.1298 13.2558 16.1098 13.106 16.0063 13.0226L13.7816 11.2278C13.671 11.1385 13.5084 11.1593 13.4237 11.2735L12.5579 12.4419C12.3476 12.7256 11.9678 12.8242 11.6461 12.6786C8.68968 11.3407 6.31397 8.96497 4.97604 6.00857C4.83043 5.68681 4.92902 5.30705 5.21278 5.09677L6.38115 4.23091C6.49532 4.14631 6.5161 3.98368 6.42688 3.87308L4.63184 1.64804C4.54841 1.54462 4.39866 1.52454 4.29093 1.60231L2.51764 2.88247C1.64885 3.50966 1.34289 4.6625 1.78635 5.63795L2.33969 6.85511C2.33989 6.85555 2.34009 6.85598 2.34029 6.85641ZM10.6699 16.8974C6.37392 15.0738 2.91856 11.7108 0.976513 7.48101L0.975343 7.47846L0.420841 6.25874C-0.318259 4.63299 0.191669 2.71158 1.63965 1.66627L3.41294 0.386111C4.16706 -0.158295 5.21529 -0.0176905 5.79929 0.706203L7.59433 2.93125C8.21889 3.70542 8.07342 4.84381 7.27426 5.43605L6.60476 5.93221C7.73567 8.1266 9.52805 9.91898 11.7224 11.0499L12.2186 10.3804C12.8108 9.58123 13.9492 9.43576 14.7234 10.0603L16.9482 11.8551C17.6723 12.4393 17.8127 13.4879 17.2678 14.242L15.9935 16.0058C14.9541 17.4443 13.0487 17.9572 11.4277 17.235L10.6699 16.8974Z" fill="white"/>
</svg>
