<svg width="18" height="17" viewBox="0 0 18 17" fill="none" xmlns="http://www.w3.org/2000/svg">
<path fill-rule="evenodd" clip-rule="evenodd" d="M11.385 11.6485C8.73476 13.6844 4.85532 13.5242 2.39854 11.1678C-0.237501 8.63946 -0.237501 4.54026 2.39854 2.01195C5.03458 -0.516355 9.30844 -0.516354 11.9445 2.01195C14.4013 4.36833 14.5683 8.08921 12.4457 10.6312L17.6013 15.5761C17.8942 15.857 17.8942 16.3125 17.6013 16.5934C17.3084 16.8743 16.8335 16.8743 16.5407 16.5934L11.385 11.6485ZM3.4592 10.1505C1.40895 8.184 1.40895 4.99573 3.4592 3.02927C5.50945 1.0628 8.83357 1.0628 10.8838 3.02927C12.9326 4.99429 12.9341 8.17931 10.8883 10.1461C10.8868 10.1476 10.8853 10.149 10.8838 10.1504C10.8823 10.1519 10.8808 10.1533 10.8793 10.1548C8.8287 12.1169 5.50795 12.1155 3.4592 10.1505Z" fill="white"/>
</svg>
