<svg width="22" height="16" viewBox="0 0 22 16" fill="none" xmlns="http://www.w3.org/2000/svg">
<path fill-rule="evenodd" clip-rule="evenodd" d="M9.38587 4.35691C9.15417 4.21789 8.86561 4.21425 8.63048 4.34738C8.39534 4.48051 8.25 4.72983 8.25 5.00003V11C8.25 11.2702 8.39534 11.5196 8.63048 11.6527C8.86561 11.7858 9.15417 11.7822 9.38587 11.6432L14.3859 8.64315C14.6118 8.50761 14.75 8.26348 14.75 8.00003C14.75 7.73658 14.6118 7.49245 14.3859 7.35691L9.38587 4.35691ZM12.5423 8.00003L9.75 9.67539V6.32467L12.5423 8.00003Z" fill="black"/>
<path fill-rule="evenodd" clip-rule="evenodd" d="M16.0307 0.641311C12.682 0.379329 9.31804 0.379328 5.96938 0.641311L3.72868 0.816613C2.36612 0.923214 1.25143 1.94442 1.02619 3.29246C0.505429 6.40924 0.505429 9.59082 1.02619 12.7076C1.25143 14.0556 2.36612 15.0768 3.72868 15.1834L5.96938 15.3587C9.31803 15.6207 12.682 15.6207 16.0307 15.3587L18.2714 15.1834C19.6339 15.0768 20.7486 14.0556 20.9739 12.7076C21.4946 9.59082 21.4946 6.40924 20.9739 3.29246C20.7486 1.94442 19.6339 0.923214 18.2714 0.816613L16.0307 0.641311ZM6.08638 2.13674C9.35715 1.88085 12.6429 1.88085 15.9137 2.13674L18.1544 2.31204C18.83 2.3649 19.3827 2.87125 19.4944 3.53966C19.9878 6.49277 19.9878 9.50729 19.4944 12.4604C19.3827 13.1288 18.83 13.6352 18.1544 13.688L15.9137 13.8633C12.6429 14.1192 9.35715 14.1192 6.08638 13.8633L3.84568 13.688C3.17007 13.6352 2.61736 13.1288 2.50568 12.4604C2.01227 9.50729 2.01227 6.49277 2.50568 3.53966C2.61736 2.87125 3.17007 2.3649 3.84568 2.31204L6.08638 2.13674Z" fill="black"/>
</svg>
